<svg xmlns="http://www.w3.org/2000/svg" viewBox="0 0 100 100" width="100" height="100">
  <rect width="100" height="100" rx="20" fill="#0f3d2e"/>
  <g transform="translate(50,50) scale(1.2) translate(-50,-50)">
  <path d="M50 16
           C50 16 20 40 20 56
           C20 67 28 73 36 73
           C42 73 46 70 48 65
           C47 76 43 83 35 88
           L65 88
           C57 83 53 76 52 65
           C54 70 58 73 64 73
           C72 73 80 67 80 56
           C80 40 50 16 50 16 Z"
        fill="#d9a441"/>
</svg>
